<?xml version="1.0" standalone="no"?>
<!DOCTYPE svg PUBLIC "-//W3C//DTD SVG 20010904//EN"
 "http://www.w3.org/TR/2001/REC-SVG-20010904/DTD/svg10.dtd">
<svg version="1.0" xmlns="http://www.w3.org/2000/svg"
 width="260.000000pt" height="260.000000pt" viewBox="0 0 260.000000 260.000000"
 preserveAspectRatio="xMidYMid meet">
<metadata>
Created by potrace 1.14, written by Peter Selinger 2001-2017
</metadata>
<g transform="translate(0.000000,260.000000) scale(0.100000,-0.100000)"
fill="#000000" stroke="none">
<path d="M607 2365 c-20 -14 -37 -29 -37 -33 0 -12 12 -24 90 -97 42 -38 108
-100 147 -137 l71 -68 -27 -29 -27 -29 -155 141 c-85 78 -168 154 -184 169
-35 33 -80 45 -101 27 -9 -7 -14 -28 -14 -53 1 -23 2 -61 2 -86 1 -25 2 -75 2
-112 1 -63 2 -67 26 -70 54 -8 63 0 57 48 -2 25 -16 61 -31 82 -25 37 -36 87
-17 80 5 -1 90 -73 188 -158 174 -151 177 -155 145 -158 -18 -2 -63 6 -100 16
-102 31 -112 32 -166 20 -74 -15 -142 -55 -160 -93 -17 -35 -38 -45 -98 -45
-54 0 -74 -32 -63 -103 13 -79 9 -137 -8 -154 -9 -9 -33 -19 -54 -23 l-38 -6
39 -17 c52 -23 79 -21 103 6 25 26 39 67 24 67 -6 0 -11 -6 -11 -14 0 -8 -10
-27 -23 -42 -17 -19 -29 -25 -44 -20 -20 6 -20 7 7 34 18 18 29 43 34 74 12
79 117 198 220 249 64 32 102 36 132 14 13 -9 31 -12 59 -8 35 6 38 5 25 -8
-8 -8 -41 -25 -73 -38 -112 -46 -207 -129 -237 -208 -38 -101 -16 -122 30 -30
11 23 29 53 41 67 l21 25 -6 -25 c-3 -14 -6 -35 -6 -48 0 -14 -26 -51 -69 -97
-38 -41 -84 -94 -101 -119 -18 -24 -38 -42 -44 -40 -16 6 -56 -67 -56 -102 0
-18 -11 -40 -31 -60 -31 -32 -31 -32 -14 -64 12 -24 15 -45 10 -74 -13 -82
-14 -81 32 -84 l41 -3 22 -72 c12 -40 39 -102 60 -139 l39 -68 -45 -26 c-45
-26 -64 -50 -64 -78 0 -21 64 -49 118 -51 l43 -2 -21 19 c-18 17 -21 27 -15
57 4 20 9 39 12 44 2 4 29 -12 59 -35 l54 -43 -38 -18 c-45 -23 -99 -73 -118
-109 -17 -32 -10 -130 12 -164 23 -38 178 -63 276 -44 35 6 87 23 117 38 45
23 56 33 67 67 20 60 45 75 121 75 73 0 119 19 133 55 l9 24 57 -25 c174 -77
377 -69 540 20 l62 34 6 -39 c8 -48 35 -67 106 -76 l52 -6 -4 -45 -3 -45 52
-24 c70 -32 151 -44 253 -37 129 9 155 18 175 60 9 19 19 60 22 90 l6 54 -49
48 c-27 26 -65 60 -84 75 l-35 28 24 20 c13 11 30 18 38 15 7 -3 66 -46 131
-96 116 -89 119 -90 158 -82 36 7 39 10 36 37 -3 31 -36 67 -161 176 -98 85
-56 80 47 -6 89 -74 118 -87 152 -65 27 17 12 71 -30 115 -29 30 -37 44 -30
55 16 25 12 28 -34 35 -25 4 -52 15 -60 24 -14 16 -13 23 11 84 25 63 43 81
58 57 3 -6 15 -10 27 -10 18 0 20 5 15 53 -2 31 2 73 11 104 14 48 14 53 -5
85 -18 30 -19 38 -7 59 21 39 17 76 -10 94 -20 13 -29 14 -46 5 -12 -6 -23
-10 -24 -8 -2 2 -17 28 -34 58 -42 75 -132 182 -187 222 -42 31 -44 36 -45 83
0 28 -4 55 -8 62 -12 18 -131 61 -209 74 -100 17 -97 14 -69 58 14 22 28 52
32 67 6 24 5 26 -17 21 -141 -32 -142 -32 -147 -18 -8 24 -83 101 -129 132
-82 56 -171 78 -333 81 l-145 2 -94 -37 -93 -37 -137 129 c-75 71 -145 138
-155 150 -24 27 -33 26 -79 -4z m49 -7 c-10 -6 -20 -7 -24 -3 -9 8 20 25 31
18 5 -3 2 -10 -7 -15z m-41 -29 c11 -17 -1 -21 -15 -4 -8 9 -8 15 -2 15 6 0
14 -5 17 -11z m-207 -43 c-7 -8 -15 -12 -17 -11 -5 6 10 25 20 25 5 0 4 -6 -3
-14z m1041 -150 c7 -5 19 -24 27 -42 16 -39 7 -92 -33 -186 -17 -42 -23 -73
-22 -118 1 -33 -1 -63 -4 -66 -3 -3 -5 7 -5 23 1 16 -5 45 -12 65 -12 32 -11
48 5 116 11 49 16 101 13 136 -5 55 -16 83 -25 59 -3 -7 -13 -13 -24 -13 -10
0 -19 -4 -19 -10 0 -5 7 -10 15 -10 21 0 19 -8 -12 -35 -35 -30 -82 -32 -111
-4 -25 23 -21 39 9 39 12 0 19 5 16 13 -4 12 -21 13 -62 4 -32 -6 -32 -67 -1
-120 30 -50 32 -72 10 -107 -15 -25 -15 -25 -10 11 3 26 -3 53 -20 89 -13 29
-24 70 -24 92 0 23 -4 37 -10 33 -17 -10 -11 -80 10 -126 32 -72 25 -84 -20
-36 -58 64 -72 108 -44 143 8 10 13 14 10 7 -3 -6 -2 -22 3 -35 l10 -23 0 26
c1 18 13 38 35 57 l35 30 123 -2 c68 -1 130 -6 137 -10z m80 -29 c6 -8 13 -29
16 -48 l5 -34 -11 30 c-6 17 -18 38 -27 48 -8 9 -10 17 -5 17 6 0 16 -6 22
-13z m-468 -29 c-11 -18 -26 -36 -33 -40 -7 -3 -42 -20 -78 -36 -36 -16 -84
-49 -107 -73 -52 -52 -56 -34 -8 30 40 52 120 111 156 115 13 1 38 10 54 19
40 22 40 22 16 -15z m557 2 c43 -27 133 -115 107 -105 -11 4 -33 11 -48 15
-64 20 -107 58 -107 96 0 19 9 18 48 -6z m-113 -109 c-8 -17 -18 -31 -20 -31
-6 0 6 60 18 90 l11 25 4 -27 c2 -15 -4 -40 -13 -57z m-887 -80 c31 -11 71
-22 87 -24 17 -3 -15 -3 -70 0 -55 2 -133 5 -172 6 -40 1 -73 3 -73 4 0 1 21
9 48 17 65 20 113 19 180 -3z m338 -48 c41 -5 42 -6 37 -38 -4 -25 0 -38 16
-54 42 -42 121 -14 121 45 0 14 4 23 10 19 17 -10 11 -58 -11 -94 l-20 -34
-76 7 c-109 10 -139 25 -153 75 -13 50 -4 95 18 86 9 -3 35 -9 58 -12z m96
-56 c3 -23 28 -36 28 -15 0 8 7 23 15 34 14 18 14 17 15 -14 0 -44 -37 -63
-75 -38 -23 15 -33 45 -19 59 11 11 33 -5 36 -26z m154 -34 c-7 -7 -26 7 -26
19 0 6 6 6 15 -2 9 -7 13 -15 11 -17z m-979 -20 c-20 -16 -39 -37 -43 -48 -7
-20 -7 -20 -16 0 -6 13 -5 31 1 48 9 23 16 27 52 27 l42 0 -36 -27z m1253 -33
c6 -11 8 -20 6 -20 -3 0 -10 9 -16 20 -6 11 -8 20 -6 20 3 0 10 -9 16 -20z
m-200 0 c0 -5 -4 -10 -10 -10 -5 0 -10 5 -10 10 0 6 5 10 10 10 6 0 10 -4 10
-10z m45 0 c-3 -5 -11 -10 -16 -10 -6 0 -7 5 -4 10 3 6 11 10 16 10 6 0 7 -4
4 -10z m576 -19 c7 11 9 11 9 1 0 -15 -99 -64 -113 -55 -5 3 13 18 39 34 29
17 51 24 53 18 2 -7 7 -6 12 2z m-1170 -21 c28 -16 23 -32 -6 -18 -14 6 -25
15 -25 20 0 11 7 10 31 -2z m1199 -23 c0 -7 -4 -6 -10 3 -5 8 -10 10 -10 4 0
-9 -41 -34 -55 -34 -16 0 0 19 28 32 34 16 47 15 47 -5z m-656 -2 c3 -10 -1
-15 -12 -15 -10 0 -22 -4 -27 -8 -6 -5 -30 -16 -55 -26 l-45 -16 29 22 c17 12
36 23 44 25 8 1 22 9 31 17 19 20 27 20 35 1z m-514 -36 c0 -8 -51 4 -70 16
-6 3 -8 10 -5 15 5 9 75 -20 75 -31z m56 4 c-8 -8 -56 17 -56 29 0 5 14 1 31
-7 17 -9 28 -19 25 -22z m926 -15 c-7 -7 -12 -8 -12 -2 0 6 3 14 7 17 3 4 9 5
12 2 2 -3 -1 -11 -7 -17z m-917 -8 c19 -8 19 -9 -2 -9 -12 -1 -25 4 -28 9 -7
12 2 12 30 0z m729 -9 c19 -11 37 -17 42 -13 4 4 4 2 0 -5 -3 -6 -2 -14 3 -18
6 -3 15 4 22 16 8 17 13 19 19 8 7 -10 12 -10 26 2 11 9 15 9 10 1 -19 -32
-116 -62 -116 -35 0 8 5 11 10 8 6 -3 10 -2 10 4 0 6 -19 19 -42 30 -24 11
-38 20 -31 21 7 0 28 -9 47 -19z m-561 -11 c9 0 17 -6 17 -14 0 -8 7 -17 16
-20 9 -4 14 -9 11 -12 -7 -8 -107 39 -107 50 0 4 10 6 23 2 12 -3 30 -6 40 -6z
m137 6 c0 -2 -12 -11 -27 -20 l-28 -17 24 20 c23 21 31 25 31 17z m-12 -66
c25 -12 56 -16 113 -15 44 1 79 -2 79 -6 0 -5 -9 -9 -20 -9 -11 0 -20 -4 -20
-10 0 -11 15 -12 48 -3 17 4 20 8 11 14 -8 4 -11 11 -7 14 9 9 238 12 238 3 0
-5 -3 -7 -7 -6 -5 1 -27 -8 -51 -20 -23 -13 -47 -20 -52 -17 -5 3 -30 -2 -56
-11 -39 -13 -48 -13 -55 -2 -5 7 -9 8 -9 3 0 -6 -22 -10 -49 -10 -27 0 -48 2
-46 5 2 3 -14 16 -36 28 -38 22 -52 19 -27 -6 9 -9 9 -12 1 -12 -7 0 -18 8
-25 18 -7 9 -32 26 -55 37 -24 11 -43 23 -43 27 0 8 17 2 68 -22z m-78 -10 c0
-5 -4 -10 -9 -10 -6 0 -13 5 -16 10 -3 6 1 10 9 10 9 0 16 -4 16 -10z m40 -10
c13 -8 13 -10 -2 -10 -9 0 -20 5 -23 10 -8 13 5 13 25 0z m1447 -180 c4 -11 2
-12 -5 -2 -7 10 -18 8 -53 -7 -24 -12 -60 -20 -79 -20 -33 1 -31 2 15 13 28 7
59 17 70 24 25 15 47 11 52 -8z m-2352 -20 c3 -5 1 -10 -4 -10 -6 0 -11 5 -11
10 0 6 2 10 4 10 3 0 8 -4 11 -10z m60 -30 c3 -6 -1 -7 -9 -4 -18 7 -21 14 -7
14 6 0 13 -4 16 -10z m141 -5 c-22 -17 -36 -18 -63 -8 -14 6 -11 9 17 14 60
11 67 10 46 -6z m2121 -80 c22 -34 22 -35 4 -45 -27 -14 -28 -13 -28 18 0 15
-3 35 -7 45 -14 30 8 18 31 -18z m28 3 l16 -33 -20 25 c-20 24 -26 40 -16 40
2 0 12 -15 20 -32z m-2400 -18 c-10 -11 -23 -20 -28 -20 -6 0 -2 9 8 20 10 11
23 20 28 20 6 0 2 -9 -8 -20z m25 -20 c0 -5 -5 -10 -11 -10 -5 0 -7 5 -4 10 3
6 8 10 11 10 2 0 4 -4 4 -10z m620 -21 c51 -11 68 -29 28 -29 -35 0 -98 20
-98 30 0 13 8 12 70 -1z m-525 -63 c-4 -31 -12 -56 -17 -56 -6 0 -8 18 -3 46
13 92 31 100 20 10z m633 28 c-14 -31 -38 -31 -38 -1 0 30 6 36 30 30 16 -4
17 -9 8 -29z m-524 20 c16 -6 22 -39 8 -48 -4 -2 -15 9 -24 25 -17 29 -13 34
16 23z m-24 -71 c0 -11 -30 -33 -45 -33 -3 0 -3 12 1 28 12 54 13 57 29 36 8
-10 15 -24 15 -31z m719 11 c2 -2 -3 -6 -12 -9 -23 -9 -97 14 -97 30 0 12 8
12 53 -2 28 -8 54 -17 56 -19z m-487 -6 c-7 -7 -12 -8 -12 -2 0 14 12 26 19
19 2 -3 -1 -11 -7 -17z m582 16 c13 -5 24 -54 12 -54 -13 0 -72 25 -78 34 -15
23 26 35 66 20z m108 -25 c64 -13 78 -24 57 -44 -13 -13 -23 -14 -75 -2 -48
11 -60 18 -62 35 -4 26 5 27 80 11z m82 -53 c-3 -9 -10 -13 -16 -10 -5 3 -4
12 3 20 15 18 22 13 13 -10z m43 2 c-3 -8 -6 -5 -6 6 -1 11 2 17 5 13 3 -3 4
-12 1 -19z m-688 -73 c0 -11 -7 0 -15 25 -17 56 -17 64 1 25 8 -16 14 -39 14
-50z m794 45 c-3 -12 -8 -19 -11 -16 -5 6 5 36 12 36 2 0 2 -9 -1 -20z m38
-17 c-12 -20 -14 -14 -5 12 4 9 9 14 11 11 3 -2 0 -13 -6 -23z m-774 -90 c-2
-21 -4 -4 -4 37 0 41 2 58 4 38 2 -21 2 -55 0 -75z m874 80 c-12 -20 -14 -14
-5 12 4 9 9 14 11 11 3 -2 0 -13 -6 -23z m60 -20 c-12 -20 -14 -14 -5 12 4 9
9 14 11 11 3 -2 0 -13 -6 -23z m38 20 c0 -5 -4 -17 -9 -28 -8 -18 -9 -17 -9 8
-1 15 4 27 9 27 6 0 10 -3 9 -7z m119 -19 c23 -4 42 -10 42 -15 0 -5 -7 -6
-15 -3 -10 4 -15 0 -16 -12 -1 -18 -2 -18 -6 0 -5 18 -6 18 -19 -5 l-14 -24 5
25 c5 21 2 26 -14 27 -11 1 -22 -6 -24 -15 -3 -11 -5 -8 -7 8 -1 23 -2 23 -10
5 -8 -19 -9 -19 -9 4 -1 19 3 22 22 18 12 -4 41 -9 65 -13z m-839 -15 c17 -6
31 -15 31 -19 0 -5 -15 -1 -32 7 -53 26 -53 31 1 12z m925 -7 c2 -4 1 -14 -5
-22 -7 -12 -9 -11 -9 5 -1 18 -2 17 -15 -5 -14 -25 -20 -16 -9 14 6 17 29 22
38 8z m-1409 -20 c-3 -3 -11 0 -18 7 -9 10 -8 11 6 5 10 -3 15 -9 12 -12z
m1432 -12 c-6 -16 -13 -28 -15 -26 -6 6 10 56 18 56 5 0 3 -13 -3 -30z m26 0
c-3 -12 -8 -19 -11 -16 -5 6 5 36 12 36 2 0 2 -9 -1 -20z m38 -17 c-12 -20
-14 -14 -5 12 4 9 9 14 11 11 3 -2 0 -13 -6 -23z m65 19 c7 -4 8 -15 3 -27 -7
-19 -8 -19 -8 3 -1 28 -17 29 -31 1 -7 -11 -14 -19 -17 -16 -7 7 20 47 32 47
5 0 15 -4 21 -8z m-1379 -24 c-3 -8 -6 -5 -6 6 -1 11 2 17 5 13 3 -3 4 -12 1
-19z m292 -22 c-3 -3 -11 5 -18 17 -13 21 -12 21 5 5 10 -10 16 -20 13 -22z
m1171 28 c0 -3 -5 -14 -10 -25 -18 -33 -57 -20 -44 15 6 15 54 24 54 10z m27
-31 c-17 -18 -22 -8 -11 22 5 12 10 13 17 6 8 -8 6 -16 -6 -28z m-1520 11 c-3
-3 -12 -4 -19 -1 -8 3 -5 6 6 6 11 1 17 -2 13 -5z m1593 -4 c0 -5 -9 -10 -20
-10 -11 0 -20 5 -20 10 0 6 9 10 20 10 11 0 20 -4 20 -10z m-1573 -32 c-3 -8
-6 -5 -6 6 -1 11 2 17 5 13 3 -3 4 -12 1 -19z m213 -20 c0 -4 -4 -8 -10 -8 -5
0 -10 4 -10 9 0 5 -3 18 -6 28 -5 16 -4 16 10 -1 9 -11 16 -23 16 -28z m1504
23 c13 -5 16 -10 8 -15 -14 -8 -62 3 -62 15 0 11 27 11 54 0z m99 -27 c-7 -18
-63 -19 -63 -1 0 21 7 24 39 19 20 -3 28 -8 24 -18z m-143 -116 c0 -20 -24
-78 -32 -78 -11 0 -10 18 4 57 12 32 28 45 28 21z m218 -42 c-11 -10 -58 -15
-58 -6 0 5 8 10 19 10 10 0 22 10 26 23 l8 22 4 -23 c3 -13 3 -25 1 -26z m-56
-116 c3 -21 -2 -26 -26 -28 -38 -5 -56 13 -22 22 18 4 26 13 26 28 0 29 19 11
22 -22z"/>
<path d="M1360 1450 c-12 -8 -10 -9 7 -7 12 2 26 6 29 10 11 11 -19 8 -36 -3z"/>
<path d="M259 1645 c-11 -25 -19 -56 -18 -68 4 -38 -12 -105 -29 -120 -9 -8
-28 -17 -42 -19 l-25 -4 29 -13 c33 -13 76 -3 108 26 31 28 20 36 -13 9 -37
-31 -72 -37 -47 -8 17 19 33 66 43 127 4 22 15 54 26 71 23 38 24 44 3 44 -8
0 -24 -20 -35 -45z"/>
</g>
</svg>
